

<svg width="200" height="41" viewBox="0 0 200 41" fill="none" xmlns="http://www.w3.org/2000/svg">
<path d="M59.6243 7.37303V15.429H70.5279V24.068H59.6243V39.0935H48.3209V0.483032H73.1779V7.37303H59.6243Z" fill="#1471EA"/>
<path d="M114.348 38.961C113.277 38.4941 112.519 38.0335 111.83 37.3445C111.159 36.6379 110.647 35.7899 110.293 34.8005C109.94 33.8112 109.763 32.707 109.763 31.488V17.284H107.431C107.007 17.284 106.645 17.1515 106.345 16.8865C106.045 16.6039 105.894 16.1975 105.894 15.6675V11.666L110.267 11.613L110.446 4.90853C110.658 4.06053 111.259 3.63653 112.248 3.63653H117.978V11.666H124.281V17.284H117.978V30.9315C117.978 31.5675 117.99 32.101 118.429 32.6275C119.036 33.3565 119.84 33.3577 120.78 33.237C121.077 33.199 121.328 33.1045 121.522 33.0515C121.734 32.9809 121.911 32.9102 122.052 32.8395C122.211 32.7512 122.581 32.5 122.953 32.5215C123.192 32.5353 123.395 32.5834 123.536 32.707C123.695 32.813 123.854 32.9897 124.013 33.237C124.172 33.4844 125.41 37.3445 125.41 37.3445C124.35 38.1395 123.252 38.5282 121.927 38.9345C120.602 39.3232 117.061 40.1439 114.348 38.961Z" fill="#1471EA"/>
<path d="M0.434082 2.48303H35.0783V15.5212H0.434082V2.48303Z" fill="#1471EA"/>
<path d="M0.434082 24.0554H35.0783V37.0935H0.434082V24.0554Z" fill="#1471EA"/>
<path d="M182.917 40.0295C181.045 40.0295 179.364 39.6829 177.873 38.9895C176.417 38.2615 175.256 37.2909 174.389 36.0775C173.523 34.8642 173.089 33.4949 173.089 31.9695C173.089 29.5082 174.095 27.5669 176.105 26.1455C178.116 24.6895 180.785 23.7015 184.113 23.1815L190.613 22.1935V21.4655C190.613 20.2175 190.353 19.2642 189.833 18.6055C189.313 17.9469 188.36 17.6175 186.973 17.6175C186.003 17.6175 185.205 17.8082 184.581 18.1895C183.992 18.5709 183.524 19.0909 183.177 19.7495C182.865 20.2002 182.432 20.4255 181.877 20.4255H176.053C175.672 20.4255 175.377 20.3215 175.169 20.1135C174.961 19.8709 174.875 19.5935 174.909 19.2815C174.909 18.6575 175.135 17.9469 175.585 17.1495C176.071 16.3175 176.799 15.5029 177.769 14.7055C178.74 13.9082 179.988 13.2495 181.513 12.7295C183.039 12.2095 184.893 11.9495 187.077 11.9495C189.296 11.9495 191.203 12.2095 192.797 12.7295C194.392 13.2495 195.692 13.9775 196.697 14.9135C197.703 15.8495 198.431 16.9589 198.881 18.2415C199.367 19.4895 199.609 20.8762 199.609 22.4015V38.2095C199.609 38.5562 199.471 38.8682 199.193 39.1455C198.951 39.3882 198.656 39.5095 198.309 39.5095H192.277C191.896 39.5095 191.584 39.3882 191.341 39.1455C191.099 38.8682 190.977 38.5562 190.977 38.2095V36.3895C190.527 37.0482 189.92 37.6549 189.157 38.2095C188.395 38.7642 187.493 39.1975 186.453 39.5095C185.448 39.8562 184.269 40.0295 182.917 40.0295ZM185.361 34.1015C186.367 34.1015 187.268 33.8935 188.065 33.4775C188.897 33.0269 189.539 32.3509 189.989 31.4495C190.475 30.5135 190.717 29.3522 190.717 27.9655V27.2375L186.297 28.0175C184.668 28.2949 183.472 28.7282 182.709 29.3175C181.981 29.8722 181.617 30.5309 181.617 31.2935C181.617 31.8829 181.791 32.3855 182.137 32.8015C182.484 33.2175 182.935 33.5469 183.489 33.7895C184.079 33.9975 184.703 34.1015 185.361 34.1015Z" fill="#1471EA"/>
<path d="M129.352 39.5175V12.037H134.44C135.465 12.037 136.136 12.4964 136.454 13.415L136.905 14.899C137.364 14.422 137.841 13.9892 138.336 13.6005C138.831 13.1942 139.361 12.8497 139.926 12.567C140.509 12.2667 141.127 12.037 141.781 11.878C142.452 11.7014 143.185 11.613 143.98 11.613C145.641 11.613 147.01 12.0459 148.088 12.9115C149.183 13.7595 150.014 14.899 150.579 16.33C151.038 15.482 151.595 14.7577 152.248 14.157C152.92 13.5564 153.635 13.0705 154.395 12.6995C155.172 12.3285 155.985 12.0547 156.833 11.878C157.699 11.7014 158.555 11.613 159.403 11.613C160.976 11.613 162.371 11.8515 163.59 12.3285C164.809 12.7879 165.825 13.468 166.638 14.369C167.468 15.2524 168.095 16.3477 168.519 17.655C168.943 18.9447 169.155 20.411 169.155 22.054V39.5175H160.94V22.054C160.94 19.2097 159.721 17.7875 157.283 17.7875C156.17 17.7875 155.243 18.1585 154.501 18.9005C153.777 19.6249 153.414 20.676 153.414 22.054V39.5175H145.199V22.054C145.199 20.4817 144.89 19.3775 144.272 18.7415C143.654 18.1055 142.744 17.7875 141.542 17.7875C140.8 17.7875 140.094 17.9554 139.422 18.291C138.769 18.6267 138.15 19.0772 137.567 19.6425V39.5175H129.352Z" fill="#1471EA"/>
<path d="M85.3034 40.0296C83.4314 40.0296 81.7501 39.6829 80.2594 38.9896C78.8034 38.2616 77.6421 37.2909 76.7754 36.0776C75.9087 34.8643 75.4754 33.4949 75.4754 31.9696C75.4754 29.5083 76.4808 27.5669 78.4914 26.1456C80.5021 24.6896 83.1714 23.7016 86.4994 23.1816L92.9994 22.1936V21.4656C92.9994 20.2176 92.7394 19.2643 92.2194 18.6056C91.6994 17.9469 90.7461 17.6176 89.3594 17.6176C88.3887 17.6176 87.5914 17.8083 86.9674 18.1896C86.3781 18.5709 85.9101 19.0909 85.5634 19.7496C85.2514 20.2003 84.8181 20.4256 84.2634 20.4256H78.4394C78.0581 20.4256 77.7634 20.3216 77.5554 20.1136C77.3474 19.8709 77.2607 19.5936 77.2954 19.2816C77.2954 18.6576 77.5207 17.9469 77.9714 17.1496C78.4567 16.3176 79.1848 15.5029 80.1554 14.7056C81.1261 13.9083 82.3741 13.2496 83.8994 12.7296C85.4248 12.2096 87.2794 11.9496 89.4634 11.9496C91.6821 11.9496 93.5888 12.2096 95.1834 12.7296C96.7781 13.2496 98.0781 13.9776 99.0834 14.9136C100.089 15.8496 100.817 16.9589 101.267 18.2416C101.753 19.4896 101.995 20.8763 101.995 22.4016V38.2096C101.995 38.5563 101.857 38.8683 101.579 39.1456C101.337 39.3883 101.042 39.5096 100.695 39.5096H94.6634C94.2821 39.5096 93.9701 39.3883 93.7274 39.1456C93.4847 38.8683 93.3634 38.5563 93.3634 38.2096V36.3896C92.9127 37.0483 92.3061 37.6549 91.5434 38.2096C90.7808 38.7643 89.8794 39.1976 88.8394 39.5096C87.8341 39.8563 86.6554 40.0296 85.3034 40.0296ZM87.7474 34.1016C88.7527 34.1016 89.6541 33.8936 90.4514 33.4776C91.2834 33.0269 91.9248 32.3509 92.3754 31.4496C92.8608 30.5136 93.1034 29.3523 93.1034 27.9656V27.2376L88.6834 28.0176C87.0541 28.2949 85.8581 28.7283 85.0954 29.3176C84.3674 29.8723 84.0034 30.5309 84.0034 31.2936C84.0034 31.8829 84.1768 32.3856 84.5234 32.8016C84.8701 33.2176 85.3208 33.5469 85.8754 33.7896C86.4648 33.9976 87.0887 34.1016 87.7474 34.1016Z" fill="#1471EA"/>
</svg>