

<svg width="151" height="30" viewBox="0 0 151 30" fill="none" xmlns="http://www.w3.org/2000/svg">
<path d="M0.600006 11.1397V2.29042H26.5346V11.2273C26.5346 11.1397 0.600006 11.1397 0.600006 11.1397Z" fill="#1073E3"/>
<path d="M0.600006 27.5241V17.8862H26.5346V27.5241H0.600006Z" fill="#1073E3"/>
<path d="M70.2554 16.3967C67.9773 16.4843 67.0136 16.4843 65.7869 16.6596C62.8956 16.9224 60.7928 17.6234 59.2157 18.7624C57.7262 19.8138 56.85 21.5661 56.9376 23.4061C56.85 25.0708 57.5509 26.6479 58.69 27.6993C59.9166 28.8383 61.7566 29.4516 64.2098 29.4516C66.4002 29.5393 68.5907 28.9259 70.343 27.5241V29.0136H76.4762C76.3009 27.5241 76.2133 26.0346 76.2133 24.4575V15.871C76.2133 12.9797 75.3372 11.2273 73.322 10.1759C71.482 9.38739 69.4668 9.03692 67.4516 9.03692C64.3851 9.03692 62.0194 9.65024 60.3547 10.8769C59.0404 11.8407 58.0767 13.1549 57.7262 14.732L63.7717 15.6958C64.2098 14.1187 65.3488 13.5054 67.364 13.5054C69.3792 13.5054 70.343 14.2063 70.343 15.6958L70.2554 16.3967ZM70.2554 21.5661C70.2554 22.5299 69.8173 23.4061 69.1164 24.0194C68.065 24.8079 66.8383 25.246 65.5241 25.246C63.8594 25.246 62.8956 24.5451 62.8956 23.4061C62.9832 22.3547 63.7717 21.4785 64.7355 21.3033C66.0498 20.8652 67.4516 20.69 70.2554 20.69V21.5661Z" fill="#1073E3"/>
<path d="M144.379 15.6082C142.101 15.6958 141.137 15.6958 139.911 15.871C137.019 16.1339 134.917 16.8348 133.339 17.9738C131.85 19.0252 130.974 20.7776 131.061 22.6175C130.974 24.2822 131.675 25.8594 132.814 26.9108C134.04 28.0498 135.88 28.6631 138.334 28.6631C140.524 28.7507 142.714 28.1374 144.467 26.7355V28.225H150.6C150.425 26.7355 150.337 25.246 150.337 23.6689V15.0825C150.337 12.1911 149.461 10.4388 147.446 9.38739C145.606 8.59883 143.591 8.24837 141.575 8.24837C138.509 8.24837 136.143 8.86169 134.479 10.0883C133.164 11.0521 132.2 12.3664 131.85 13.9435L137.896 14.9072C138.334 13.3301 139.473 12.7168 141.488 12.7168C143.503 12.7168 144.467 13.4178 144.467 14.9072L144.379 15.6082ZM144.379 20.7776C144.379 21.7414 143.941 22.6175 143.24 23.2308C142.189 24.0194 140.962 24.4575 139.648 24.4575C137.983 24.4575 137.019 23.7565 137.019 22.6175C137.107 21.5661 137.896 20.69 138.859 20.5147C140.174 20.0766 141.575 19.9014 144.379 19.9014V20.7776Z" fill="#1073E3"/>
<path d="M102.06 8.24837V11.2273C103.199 8.86169 105.214 7.72267 108.106 7.72267C111.085 7.72267 113.1 9.03692 114.064 11.753C114.502 10.5264 115.378 9.475 116.429 8.86169C117.656 8.16075 118.97 7.72267 120.372 7.81028C122.212 7.72267 124.052 8.4236 125.366 9.82547C126.593 11.1397 127.206 13.0673 127.206 15.6082V28.9259H121.248V16.4843C121.336 15.5206 121.073 14.4692 120.547 13.6806C120.022 12.9797 119.233 12.6292 118.445 12.6292C117.393 12.6292 116.517 13.0673 115.816 13.7682C115.028 14.5568 114.677 15.871 114.677 17.7986V28.9259H108.719V16.4843C108.807 15.5206 108.544 14.4692 108.018 13.6806C107.493 12.9797 106.704 12.6292 105.915 12.6292C104.864 12.6292 103.988 13.0673 103.287 13.7682C102.498 14.5568 102.148 15.871 102.148 17.7986V28.9259H96.19V8.16075L102.06 8.24837Z" fill="#1073E3"/>
<path d="M88.0416 12.6292V22.1794C88.0416 22.7928 88.2168 23.4061 88.6549 23.8442C89.093 24.1946 89.7063 24.4575 90.3196 24.4575C91.371 24.4575 92.3348 24.1946 93.211 23.6689V28.5755C91.8967 29.0136 90.5825 29.2764 89.1806 29.1888C85.2379 29.1888 82.0836 26.0346 82.0836 22.1794V12.6292H79.1047V8.16075H82.0836V2.99136H88.0416V8.16075H92.5101V12.6292H88.0416Z" fill="#1073E3"/>
<path d="M52.4692 11.9283H44.3208V17.0977H52.4692V11.9283Z" fill="#1073E3"/>
<path d="M36.1724 0.1H44.3208V29.0136H36.1724V0.1ZM44.3208 0.1H54.6596V5.26939H44.3208V0.1ZM40.2028 11.2273H52.4692V16.2215H40.2028V11.2273Z" fill="#1073E3"/>
</svg>
