
<svg width="144" height="33" viewBox="0 0 144 33" fill="none" xmlns="http://www.w3.org/2000/svg">
<path d="M42.9295 5.93439V12.4185H50.7801V19.3718H42.9295V31.4655H34.791V0.388779H52.6881V5.93439H42.9295Z" fill="#1471EA"/>
<path d="M82.3306 31.3589C81.5594 30.9831 81.0137 30.6123 80.5176 30.0578C80.0345 29.489 79.6658 28.8065 79.411 28.0102C79.1568 27.2139 79.0294 26.3251 79.0294 25.344V13.9115H77.3503C77.045 13.9115 76.7844 13.8049 76.5684 13.5916C76.3524 13.3641 76.2437 13.037 76.2437 12.6104V9.38971L79.3922 9.34705L79.5211 3.95077C79.6738 3.26823 80.1065 2.92696 80.8186 2.92696H84.9442V9.38971H89.4823V13.9115H84.9442V24.8961C84.9442 25.408 84.9528 25.8374 85.2689 26.2612C85.7059 26.8479 86.2848 26.8489 86.9616 26.7517C87.1754 26.7211 87.3562 26.6451 87.4958 26.6024C87.6485 26.5456 87.7759 26.4887 87.8774 26.4318C87.9919 26.3607 88.2583 26.1585 88.5262 26.1758C88.6982 26.1869 88.8444 26.2257 88.9459 26.3251C89.0604 26.4105 89.1749 26.5527 89.2894 26.7517C89.4038 26.9509 90.2952 30.0578 90.2952 30.0578C89.532 30.6976 88.7414 31.0105 87.7874 31.3375C86.8334 31.6504 84.2839 32.3109 82.3306 31.3589Z" fill="#1471EA"/>
<path d="M0.312538 1.99854H25.2564V12.4927H0.312538V1.99854Z" fill="#1471EA"/>
<path d="M0.312538 19.3617H25.2564V29.8557H0.312538V19.3617Z" fill="#1471EA"/>
<path d="M131.7 32.2189C130.352 32.2189 129.142 31.9399 128.069 31.3818C127.02 30.7958 126.184 30.0146 125.56 29.038C124.937 28.0614 124.624 26.9593 124.624 25.7315C124.624 23.7505 125.348 22.188 126.796 21.0439C128.244 19.872 130.165 19.0768 132.561 18.6583L137.241 17.8631V17.2771C137.241 16.2726 137.054 15.5053 136.68 14.9752C136.305 14.4451 135.619 14.1799 134.621 14.1799C133.922 14.1799 133.348 14.3334 132.898 14.6403C132.474 14.9473 132.137 15.3658 131.887 15.8959C131.663 16.2587 131.351 16.44 130.951 16.44H126.758C126.484 16.44 126.271 16.3563 126.122 16.1889C125.972 15.9937 125.91 15.7704 125.934 15.5193C125.934 15.017 126.097 14.4451 126.421 13.8033C126.771 13.1336 127.295 12.4779 127.994 11.8361C128.693 11.1944 129.591 10.6642 130.689 10.2457C131.788 9.82716 133.123 9.61789 134.695 9.61789C136.293 9.61789 137.666 9.82716 138.814 10.2457C139.962 10.6642 140.898 11.2502 141.622 12.0035C142.346 12.7569 142.87 13.6498 143.194 14.6822C143.544 15.6867 143.718 16.8028 143.718 18.0305V30.754C143.718 31.033 143.619 31.2842 143.419 31.5074C143.245 31.7027 143.032 31.8003 142.782 31.8003H138.439C138.165 31.8003 137.94 31.7027 137.766 31.5074C137.591 31.2842 137.503 31.033 137.503 30.754V29.2891C137.179 29.8193 136.742 30.3076 136.193 30.754C135.644 31.2005 134.995 31.5492 134.246 31.8003C133.523 32.0794 132.674 32.2189 131.7 32.2189ZM133.46 27.4475C134.184 27.4475 134.833 27.2801 135.407 26.9453C136.006 26.5826 136.468 26.0385 136.792 25.313C137.142 24.5596 137.316 23.6249 137.316 22.5088V21.9229L134.134 22.5507C132.961 22.7739 132.1 23.1227 131.55 23.597C131.026 24.0435 130.764 24.5737 130.764 25.1875C130.764 25.6618 130.89 26.0664 131.139 26.4012C131.388 26.736 131.713 27.0012 132.112 27.1964C132.537 27.3638 132.986 27.4475 133.46 27.4475Z" fill="#1471EA"/>
<path d="M93.1334 31.8068V9.68831H96.7968C97.5348 9.68831 98.0179 10.0581 98.2469 10.7974L98.5716 11.9919C98.9021 11.6079 99.2455 11.2596 99.6019 10.9467C99.9583 10.6197 100.34 10.3424 100.747 10.1149C101.166 9.87319 101.611 9.68831 102.082 9.56034C102.565 9.4182 103.093 9.34705 103.666 9.34705C104.862 9.34705 105.847 9.69548 106.623 10.3922C107.412 11.0747 108.01 11.9919 108.417 13.1437C108.747 12.4611 109.148 11.8781 109.619 11.3947C110.102 10.9112 110.617 10.5202 111.164 10.2215C111.724 9.92294 112.309 9.70256 112.92 9.56034C113.543 9.4182 114.16 9.34705 114.77 9.34705C115.903 9.34705 116.907 9.53901 117.785 9.92294C118.662 10.2927 119.394 10.8401 119.979 11.5653C120.577 12.2763 121.028 13.1579 121.334 14.2101C121.639 15.2482 121.792 16.4284 121.792 17.7508V31.8068H115.877V17.7508C115.877 15.4615 114.999 14.3168 113.244 14.3168C112.442 14.3168 111.775 14.6154 111.241 15.2126C110.719 15.7956 110.458 16.6417 110.458 17.7508V31.8068H104.543V17.7508C104.543 16.4853 104.321 15.5965 103.876 15.0846C103.431 14.5727 102.776 14.3168 101.91 14.3168C101.376 14.3168 100.868 14.4519 100.384 14.722C99.9137 14.9922 99.468 15.3548 99.0482 15.8098V31.8068H93.1334Z" fill="#1471EA"/>
<path d="M61.4184 32.2189C60.0706 32.2189 58.8601 31.9399 57.7868 31.3819C56.7384 30.7959 55.9023 30.0146 55.2783 29.0381C54.6543 28.0615 54.3423 26.9593 54.3423 25.7316C54.3423 23.7506 55.0662 22.188 56.5138 21.044C57.9615 19.8721 59.8834 19.0769 62.2796 18.6584L66.9596 17.8631V17.2772C66.9596 16.2727 66.7724 15.5054 66.398 14.9752C66.0236 14.4451 65.3372 14.18 64.3388 14.18C63.6399 14.18 63.0658 14.3335 62.6165 14.6404C62.1922 14.9473 61.8553 15.3658 61.6056 15.896C61.381 16.2588 61.069 16.4401 60.6696 16.4401H56.4764C56.2018 16.4401 55.9896 16.3564 55.8399 16.189C55.6901 15.9937 55.6277 15.7705 55.6527 15.5193C55.6527 15.0171 55.8149 14.4451 56.1394 13.8033C56.4888 13.1337 57.0131 12.4779 57.7119 11.8362C58.4108 11.1945 59.3094 10.6643 60.4076 10.2458C61.5059 9.82724 62.8412 9.61797 64.4136 9.61797C66.0111 9.61797 67.3839 9.82724 68.532 10.2458C69.6802 10.6643 70.6162 11.2503 71.34 12.0036C72.0641 12.757 72.5882 13.6498 72.9122 14.6823C73.2622 15.6868 73.4364 16.8029 73.4364 18.0306V30.7541C73.4364 31.0331 73.337 31.2842 73.1369 31.5074C72.9626 31.7028 72.7502 31.8004 72.5004 31.8004H68.1576C67.8831 31.8004 67.6585 31.7028 67.4837 31.5074C67.309 31.2842 67.2216 31.0331 67.2216 30.7541V29.2892C66.8971 29.8194 66.4604 30.3076 65.9113 30.7541C65.3622 31.2005 64.7132 31.5493 63.9644 31.8004C63.2406 32.0795 62.3919 32.2189 61.4184 32.2189ZM63.1781 27.4476C63.9019 27.4476 64.551 27.2802 65.125 26.9454C65.724 26.5826 66.1859 26.0385 66.5103 25.3131C66.8598 24.5597 67.0344 23.625 67.0344 22.5089V21.9229L63.852 22.5508C62.679 22.7739 61.8178 23.1228 61.2687 23.5971C60.7445 24.0436 60.4824 24.5737 60.4824 25.1875C60.4824 25.6618 60.6073 26.0665 60.8568 26.4013C61.1065 26.7361 61.431 27.0012 61.8303 27.1965C62.2547 27.3639 62.7039 27.4476 63.1781 27.4476Z" fill="#1471EA"/>
</svg>
