
<svg width="144" height="30" viewBox="0 0 144 30" fill="none" xmlns="http://www.w3.org/2000/svg">
<path d="M42.9295 5.30859V11.1089H50.7801V17.329H42.9295V28.1473H34.791V0.347786H52.6881V5.30859H42.9295Z" fill="#1471EA"/>
<path d="M82.3306 28.0519C81.5594 27.7158 81.0137 27.3841 80.5176 26.888C80.0345 26.3793 79.6658 25.7687 79.411 25.0564C79.1568 24.3441 79.0294 23.549 79.0294 22.6714V12.4445H77.3503C77.045 12.4445 76.7844 12.3491 76.5684 12.1583C76.3524 11.9548 76.2437 11.6622 76.2437 11.2806V8.39952L79.3922 8.36136L79.5211 3.53414C79.6738 2.92358 80.1065 2.6183 80.8186 2.6183H84.9442V8.39952H89.4823V12.4445H84.9442V22.2707C84.9442 22.7286 84.9528 23.1127 85.2689 23.4918C85.7059 24.0167 86.2848 24.0175 86.9616 23.9306C87.1754 23.9033 87.3562 23.8352 87.4958 23.7971C87.6485 23.7462 87.7759 23.6953 87.8774 23.6444C87.9919 23.5809 88.2583 23.4 88.5262 23.4155C88.6982 23.4254 88.8444 23.46 88.9459 23.549C89.0604 23.6254 89.1749 23.7526 89.2894 23.9306C89.4038 24.1088 90.2952 26.888 90.2952 26.888C89.532 27.4604 88.7414 27.7403 87.7874 28.0328C86.8334 28.3127 84.2839 28.9036 82.3306 28.0519Z" fill="#1471EA"/>
<path d="M0.312538 1.78778H25.2564V11.1753H0.312538V1.78778Z" fill="#1471EA"/>
<path d="M0.312538 17.3199H25.2564V26.7073H0.312538V17.3199Z" fill="#1471EA"/>
<path d="M131.7 28.8212C130.352 28.8212 129.142 28.5717 128.069 28.0724C127.02 27.5483 126.184 26.8494 125.56 25.9758C124.937 25.1022 124.624 24.1163 124.624 23.018C124.624 21.2459 125.348 19.8482 126.796 18.8248C128.244 17.7764 130.165 17.0651 132.561 16.6907L137.241 15.9793V15.4552C137.241 14.5566 137.054 13.8702 136.68 13.396C136.305 12.9218 135.619 12.6846 134.621 12.6846C133.922 12.6846 133.348 12.8219 132.898 13.0964C132.474 13.371 132.137 13.7454 131.887 14.2196C131.663 14.5441 131.351 14.7064 130.951 14.7064H126.758C126.484 14.7064 126.271 14.6315 126.122 14.4817C125.972 14.307 125.91 14.1073 125.934 13.8827C125.934 13.4334 126.097 12.9218 126.421 12.3476C126.771 11.7486 127.295 11.1621 127.994 10.588C128.693 10.0139 129.591 9.53964 130.689 9.16524C131.788 8.79084 133.123 8.60364 134.695 8.60364C136.293 8.60364 137.666 8.79084 138.814 9.16524C139.962 9.53964 140.898 10.0638 141.622 10.7377C142.346 11.4116 142.87 12.2104 143.194 13.1339C143.544 14.0324 143.718 15.0309 143.718 16.1291V27.5108C143.718 27.7605 143.619 27.9851 143.419 28.1848C143.245 28.3595 143.032 28.4468 142.782 28.4468H138.439C138.165 28.4468 137.94 28.3595 137.766 28.1848C137.591 27.9851 137.503 27.7605 137.503 27.5108V26.2004C137.179 26.6747 136.742 27.1115 136.193 27.5108C135.644 27.9102 134.995 28.2222 134.246 28.4468C133.523 28.6965 132.674 28.8212 131.7 28.8212ZM133.46 24.5531C134.184 24.5531 134.833 24.4033 135.407 24.1038C136.006 23.7794 136.468 23.2926 136.792 22.6436C137.142 21.9697 137.316 21.1336 137.316 20.1352V19.611L134.134 20.1726C132.961 20.3723 132.1 20.6843 131.55 21.1086C131.026 21.508 130.764 21.9822 130.764 22.5313C130.764 22.9557 130.89 23.3176 131.139 23.6171C131.388 23.9166 131.713 24.1538 132.112 24.3284C132.537 24.4782 132.986 24.5531 133.46 24.5531Z" fill="#1471EA"/>
<path d="M93.1334 28.4526V8.66664H96.7968C97.5348 8.66664 98.0179 8.99741 98.2469 9.6588L98.5716 10.7273C98.9021 10.3838 99.2455 10.0722 99.6019 9.79236C99.9583 9.49982 100.34 9.25178 100.747 9.04824C101.166 8.83202 101.611 8.66664 102.082 8.55216C102.565 8.42501 103.093 8.36136 103.666 8.36136C104.862 8.36136 105.847 8.67305 106.623 9.29628C107.412 9.90684 108.01 10.7273 108.417 11.7576C108.747 11.147 109.148 10.6255 109.619 10.193C110.102 9.76061 110.617 9.41076 111.164 9.14364C111.724 8.87652 112.309 8.67938 112.92 8.55216C113.543 8.42501 114.16 8.36136 114.77 8.36136C115.903 8.36136 116.907 8.53308 117.785 8.87652C118.662 9.20729 119.394 9.69696 119.979 10.3457C120.577 10.9817 121.028 11.7703 121.334 12.7116C121.639 13.6402 121.792 14.6959 121.792 15.8789V28.4526H115.877V15.8789C115.877 13.831 114.999 12.807 113.244 12.807C112.442 12.807 111.775 13.0741 111.241 13.6084C110.719 14.1299 110.458 14.8867 110.458 15.8789V28.4526H104.543V15.8789C104.543 14.7468 104.321 13.9518 103.876 13.4939C103.431 13.036 102.776 12.807 101.91 12.807C101.376 12.807 100.868 12.9279 100.384 13.1695C99.9137 13.4112 99.468 13.7356 99.0482 14.1426V28.4526H93.1334Z" fill="#1471EA"/>
<path d="M61.4184 28.8213C60.0706 28.8213 58.8601 28.5717 57.7868 28.0725C56.7384 27.5484 55.9023 26.8494 55.2783 25.9759C54.6543 25.1023 54.3423 24.1163 54.3423 23.0181C54.3423 21.246 55.0662 19.8482 56.5138 18.8248C57.9615 17.7765 59.8834 17.0652 62.2796 16.6908L66.9596 15.9794V15.4552C66.9596 14.5567 66.7724 13.8703 66.398 13.396C66.0236 12.9218 65.3372 12.6847 64.3388 12.6847C63.6399 12.6847 63.0658 12.822 62.6165 13.0965C62.1922 13.371 61.8553 13.7454 61.6056 14.2197C61.381 14.5442 61.069 14.7064 60.6696 14.7064H56.4764C56.2018 14.7064 55.9896 14.6316 55.8399 14.4818C55.6901 14.307 55.6277 14.1074 55.6527 13.8828C55.6527 13.4335 55.8149 12.9218 56.1394 12.3477C56.4888 11.7487 57.0131 11.1621 57.7119 10.588C58.4108 10.014 59.3094 9.53971 60.4076 9.16531C61.5059 8.79091 62.8412 8.60371 64.4136 8.60371C66.0111 8.60371 67.3839 8.79091 68.532 9.16531C69.6802 9.53971 70.6162 10.0639 71.34 10.7378C72.0641 11.4117 72.5882 12.2104 72.9122 13.134C73.2622 14.0325 73.4364 15.0309 73.4364 16.1292V27.5109C73.4364 27.7605 73.337 27.9852 73.1369 28.1848C72.9626 28.3596 72.7502 28.4469 72.5004 28.4469H68.1576C67.8831 28.4469 67.6585 28.3596 67.4837 28.1848C67.309 27.9852 67.2216 27.7605 67.2216 27.5109V26.2005C66.8971 26.6748 66.4604 27.1115 65.9113 27.5109C65.3622 27.9103 64.7132 28.2223 63.9644 28.4469C63.2406 28.6965 62.3919 28.8213 61.4184 28.8213ZM63.1781 24.5532C63.9019 24.5532 64.551 24.4034 65.125 24.1039C65.724 23.7794 66.1859 23.2926 66.5103 22.6437C66.8598 21.9698 67.0344 21.1337 67.0344 20.1352V19.6111L63.852 20.1727C62.679 20.3723 61.8178 20.6844 61.2687 21.1087C60.7445 21.5081 60.4824 21.9822 60.4824 22.5314C60.4824 22.9557 60.6073 23.3176 60.8568 23.6172C61.1065 23.9167 61.431 24.1538 61.8303 24.3285C62.2547 24.4783 62.7039 24.5532 63.1781 24.5532Z" fill="#1471EA"/>
</svg>